first trial
nRows=36
nColumns=38

# SIMM Motion File Header:
name Sujet_04_velo_60.mvnx
datacolumns 38
datarows 36
otherdata 1
range 0.0000 0.5830
endheader
time pelvis_tilt  pelvis_list  pelvis_rotation  pelvis_tx  pelvis_ty  pelvis_tz  hip_flexion_r  hip_adduction_r  hip_rotation_r  knee_angle_r  ankle_angle_r  subtalar_angle_r  mtp_angle_r  hip_flexion_l  hip_adduction_l  hip_rotation_l  knee_angle_l  ankle_angle_l  subtalar_angle_l  mtp_angle_l  lumbar_extension  lumbar_bending  lumbar_rotation  arm_flex_r  arm_add_r  arm_rot_r  elbow_flex_r  pro_sup_r  wrist_flex_r  wrist_dev_r  arm_flex_l  arm_add_l  arm_rot_l  elbow_flex_l  pro_sup_l  wrist_flex_l  wrist_dev_l
0.0000	-13.2899	6.7108	-43.6160	0.0000	1.2500	-0.0000	68.7218	-8.9566	7.2313	101.1158	11.6079	8.4930	-0.0000	52.2811	-1.8414	-12.7725	50.1469	3.7683	8.8844	0.0000	-18.8045	-0.2658	-2.0516	68.1352	-11.8304	44.2656	27.8410	29.6916	-27.8202	-10.6878	77.5365	3.4389	24.7155	16.3154	60.9534	-21.0967	-16.3335	
0.0170	-13.1340	6.2307	-44.0324	0.0000	1.2500	-0.0000	70.1415	-9.3450	8.1501	102.4714	11.6950	7.1907	0.0000	50.0039	-1.9142	-12.6838	47.9706	2.8798	8.9373	-0.0000	-18.8313	-0.0685	-1.9039	68.0081	-11.9121	44.5341	27.9483	29.6305	-27.7723	-10.6824	77.3054	3.3906	24.5779	16.3538	60.9529	-21.1353	-16.4113	
0.0330	-12.9749	5.7519	-44.4474	0.0000	1.2500	-0.0000	71.5737	-9.7127	9.0695	103.9153	11.7535	5.8998	0.0000	47.7252	-1.9917	-12.6195	45.7950	1.9906	9.0000	-0.0000	-18.8597	0.1291	-1.7566	67.8817	-11.9939	44.8029	28.0559	29.5689	-27.7245	-10.6771	77.0741	3.3436	24.4402	16.3922	60.9523	-21.1742	-16.4895	
0.0500	-12.8698	5.3932	-44.7601	0.0000	1.2500	-0.0000	73.1229	-9.9548	9.8074	105.1431	11.8588	4.9755	-0.0000	45.6904	-2.0572	-12.6293	44.0097	1.1851	9.0640	-0.0000	-18.8774	0.2806	-1.6394	67.7665	-12.0681	45.0110	28.2025	29.5192	-27.7113	-10.6824	76.8932	3.3828	24.2939	16.4132	60.9671	-21.1823	-16.5385	
0.0670	-12.8492	5.2191	-44.9243	0.0000	1.2500	-0.0000	74.9090	-10.0022	10.2697	106.0277	12.0848	4.6838	0.0000	43.9607	-2.0949	-12.7402	42.7020	0.4490	9.1098	-0.0000	-18.8793	0.3611	-1.5680	67.6770	-12.1444	45.1332	28.4370	29.4827	-27.7448	-10.6967	76.7886	3.5587	24.1216	16.4116	61.0069	-21.1353	-16.5413	
0.0830	-12.8862	5.1635	-44.9879	0.0000	1.2500	-0.0000	76.7997	-9.9362	10.5457	106.6045	12.3868	4.7445	-0.0000	42.4761	-2.1130	-12.9032	41.7840	-0.2021	9.1452	0.0000	-18.8689	0.3954	-1.5261	67.5978	-12.2129	45.1943	28.7103	29.4590	-27.8128	-10.7217	76.7349	3.8198	23.9413	16.3930	61.0618	-21.0572	-16.5146	
0.1000	-12.9540	5.1475	-44.9936	0.0000	1.2500	-0.0000	78.5182	-9.8821	10.7315	106.7714	12.6722	4.7099	0.0000	41.3003	-2.1323	-13.0473	41.3807	-0.6390	9.2042	-0.0000	-18.8471	0.4122	-1.4946	67.4937	-12.2373	45.2081	28.9135	29.4580	-27.9132	-10.7731	76.7068	4.0977	23.7982	16.3560	61.1184	-20.9892	-16.4801	
0.1170	-13.0565	5.1502	-44.9348	0.0000	1.2500	-0.0000	80.0080	-9.8872	10.8512	106.4744	12.9254	4.4196	-0.0000	40.4664	-2.1584	-13.1574	41.5456	-0.8066	9.3048	-0.0000	-18.8041	0.4205	-1.4690	67.3256	-12.1837	45.1693	28.9821	29.5004	-28.0717	-10.8765	76.6762	4.3928	23.7082	16.2909	61.1756	-20.9535	-16.4428	
0.1330	-13.1898	5.1926	-44.8178	0.0000	1.2500	-0.0000	81.3269	-9.9115	10.8883	105.7700	13.1576	4.0459	-0.0000	39.9412	-2.1901	-13.2459	42.2244	-0.7605	9.4319	0.0000	-18.7495	0.4113	-1.4538	67.1328	-12.0854	45.0837	28.9804	29.5655	-28.2630	-11.0065	76.6707	4.7045	23.6549	16.2076	61.2343	-20.9278	-16.3978	
0.1500	-13.3143	5.2586	-44.7032	0.0000	1.2500	-0.0000	82.3718	-9.9467	10.8789	104.7234	13.3167	3.6555	0.0000	39.6890	-2.2409	-13.2897	43.3809	-0.5385	9.5746	0.0000	-18.7134	0.3861	-1.4433	66.9979	-12.0066	44.9817	28.9924	29.6014	-28.4083	-11.1025	76.7487	4.9632	23.6352	16.1342	61.2836	-20.8877	-16.3506	
0.1670	-13.4269	5.3435	-44.6173	0.0000	1.2500	-0.0000	83.1263	-9.9866	10.8397	103.3252	13.3721	3.2282	-0.0000	39.7231	-2.3264	-13.2788	45.0479	-0.0954	9.7273	-0.0000	-18.7089	0.3432	-1.4334	66.9674	-11.9721	44.8507	29.0491	29.5944	-28.4675	-11.1335	76.9694	5.1400	23.6551	16.0842	61.3126	-20.8184	-16.3030	
0.1830	-13.5304	5.4517	-44.5339	0.0000	1.2500	-0.0000	83.6067	-10.0381	10.7521	101.5860	13.3565	2.7786	0.0000	40.0306	-2.4312	-13.2237	47.1948	0.5233	9.8944	-0.0000	-18.7230	0.2845	-1.4283	66.9943	-11.9578	44.7029	29.1197	29.5582	-28.4804	-11.1302	77.2736	5.2644	23.7079	16.0436	61.3325	-20.7349	-16.2534	
0.2000	-13.5948	5.5808	-44.4348	0.0000	1.2500	-0.0000	83.7587	-10.1111	10.5966	99.6006	13.3172	2.4163	-0.0000	40.5368	-2.5214	-13.1321	49.6916	1.1440	10.0800	0.0000	-18.7457	0.2171	-1.4351	67.0204	-11.9550	44.6057	29.1962	29.4816	-28.4881	-11.1227	77.5425	5.3551	23.7714	15.9988	61.3650	-20.6563	-16.2033	
0.2170	-13.6075	5.7373	-44.3094	0.0000	1.2500	-0.0000	83.5514	-10.2133	10.3603	97.3940	13.3091	2.1681	0.0000	41.2371	-2.5833	-13.0103	52.5475	1.7234	10.2983	0.0000	-18.7730	0.1404	-1.4579	67.0306	-11.9763	44.6131	29.2966	29.3314	-28.5047	-11.1201	77.7162	5.4181	23.8689	15.9466	61.3960	-20.5832	-16.1569	
0.2330	-13.5807	5.9143	-44.1687	0.0000	1.2500	-0.0000	83.0154	-10.3355	10.0524	94.9464	13.2796	1.9948	0.0000	42.1365	-2.6280	-12.8542	55.7555	2.3067	10.5320	0.0000	-18.8090	0.0551	-1.4926	67.0399	-12.0092	44.6710	29.4025	29.1411	-28.5160	-11.1135	77.8546	5.4475	23.9779	15.8902	61.4396	-20.5152	-16.1100	
0.2500	-13.5200	6.0893	-44.0266	0.0000	1.2500	-0.0000	82.1892	-10.4615	9.6869	92.2864	13.1145	1.9081	0.0000	43.1755	-2.6587	-12.6560	59.1611	2.8535	10.7382	0.0000	-18.8566	-0.0300	-1.5339	67.0358	-12.0073	44.6849	29.4520	28.9998	-28.5203	-11.1061	78.0187	5.4440	24.0078	15.8256	61.5598	-20.4700	-16.0507	
0.2670	-13.4178	6.2546	-43.9052	0.0000	1.2500	-0.0000	81.0677	-10.5740	9.2579	89.3913	12.7335	1.9205	0.0000	44.3437	-2.6755	-12.4113	62.7805	3.3489	10.9017	0.0000	-18.9205	-0.1165	-1.5775	66.9987	-11.9361	44.6079	29.4091	28.9521	-28.5143	-11.0978	78.2403	5.3824	23.9092	15.7553	61.7952	-20.4517	-15.9722	
0.2830	-13.2818	6.4175	-43.7827	0.0000	1.2500	-0.0000	79.6554	-10.6839	8.7675	86.2881	12.2159	2.0227	-0.0000	45.6517	-2.6736	-12.1262	66.5993	3.8073	11.0380	-0.0000	-18.9958	-0.2027	-1.6275	66.9484	-11.8301	44.4870	29.3101	28.9531	-28.5011	-11.0888	78.4881	5.2875	23.7325	15.6755	62.1068	-20.4561	-15.8813	
0.3000	-13.1414	6.5783	-43.6075	0.0000	1.2500	-0.0000	78.0045	-10.8160	8.2400	83.0762	11.6849	2.1980	-0.0000	47.0714	-2.6472	-11.8094	70.4154	4.2311	11.1531	-0.0000	-19.0703	-0.2750	-1.6915	66.9317	-11.7457	44.3686	29.2012	28.9579	-28.4887	-11.0829	78.7283	5.2341	23.5361	15.5727	62.4423	-20.4877	-15.7862	
0.3170	-12.9978	6.7294	-43.3862	0.0000	1.2500	-0.0000	76.0972	-10.9740	7.6704	79.7529	11.1864	2.4827	0.0000	48.5974	-2.6033	-11.4726	74.2099	4.6137	11.2507	0.0000	-19.1456	-0.3323	-1.7663	66.9693	-11.6982	44.2685	29.0897	28.9599	-28.4783	-11.0816	78.9593	5.2471	23.2942	15.4349	62.8287	-20.5605	-15.6811	
0.3330	-12.8496	6.8779	-43.1121	0.0000	1.2500	-0.0000	73.9498	-11.1422	7.0524	76.3218	10.6688	2.8420	-0.0000	50.2351	-2.5272	-11.1093	78.0005	4.9609	11.3289	-0.0000	-19.2201	-0.3756	-1.8549	67.0401	-11.6725	44.1706	28.9682	28.9656	-28.4686	-11.0834	79.1827	5.3014	23.0320	15.2741	63.2390	-20.6601	-15.5716	
0.3500	-12.7206	7.0456	-42.7126	0.0000	1.2500	-0.0000	71.6664	-11.3168	6.4025	72.8925	10.1129	3.1535	-0.0000	51.9728	-2.3783	-10.7062	81.6371	5.2937	11.3830	-0.0000	-19.2772	-0.3941	-1.9735	67.1273	-11.6788	44.0741	28.8603	28.9504	-28.4628	-11.0883	79.3690	5.3965	22.8840	15.1159	63.5403	-20.7492	-15.4828	
0.3670	-12.6221	7.2453	-42.1276	0.0000	1.2500	-0.0000	69.2291	-11.4972	5.6573	69.4517	9.5404	3.3858	-0.0000	53.8138	-2.1034	-10.2790	85.0723	5.6099	11.4262	-0.0000	-19.3112	-0.3778	-2.1335	67.2586	-11.7380	43.9774	28.7806	28.9127	-28.4812	-11.1063	79.5126	5.5537	22.9170	14.9589	63.6590	-20.8126	-15.4197	
0.3830	-12.5408	7.4638	-41.4173	0.0000	1.2500	-0.0000	66.6557	-11.6632	4.8586	66.0202	8.9360	3.5764	0.0000	55.7530	-1.7423	-9.8337	88.3518	5.9118	11.4428	-0.0000	-19.3275	-0.3367	-2.3233	67.4059	-11.8295	43.8821	28.7143	28.8538	-28.5035	-11.1275	79.6176	5.7521	23.0638	14.8059	63.6682	-20.8657	-15.3776	
0.4000	-12.4655	7.6846	-40.6900	0.0000	1.2500	-0.0000	64.1031	-11.8005	4.1870	62.7524	8.2310	3.7088	-0.0000	57.7680	-1.3924	-9.3375	91.4634	6.2262	11.3842	0.0000	-19.3254	-0.2905	-2.5246	67.4685	-11.9004	43.7912	28.6408	28.7527	-28.4727	-11.1218	79.6693	5.9285	23.2578	14.6889	63.6550	-20.9178	-15.3684	
0.4170	-12.3947	7.9096	-39.9503	0.0000	1.2500	-0.0000	61.5994	-11.9301	3.7275	59.6641	7.3868	3.7645	0.0000	59.8805	-1.0661	-8.7259	94.4379	6.5799	11.2027	0.0000	-19.2963	-0.2392	-2.7422	67.3757	-11.9177	43.7144	28.5471	28.5832	-28.3497	-11.0653	79.6443	6.0604	23.5004	14.6268	63.6301	-20.9675	-15.4075	
0.4330	-12.3294	8.1370	-39.1936	0.0000	1.2500	-0.0000	59.1118	-12.0500	3.3952	56.7298	6.4475	3.7710	0.0000	62.0722	-0.7395	-8.0673	97.2427	6.9435	10.9490	-0.0000	-19.2487	-0.1838	-2.9713	67.1985	-11.9135	43.6421	28.4457	28.3707	-28.1732	-10.9816	79.5668	6.1697	23.7907	14.6012	63.5831	-21.0159	-15.4792	
0.4500	-12.2644	8.3432	-38.5152	0.0000	1.2500	-0.0000	56.7060	-12.1305	3.1343	54.0349	5.4631	3.7788	0.0000	64.2626	-0.4701	-7.5102	99.7704	7.2616	10.7237	-0.0000	-19.2087	-0.1449	-3.1789	67.0488	-11.9328	43.5480	28.3550	28.1717	-28.0021	-10.9112	79.4938	6.2601	24.0584	14.5879	63.5704	-21.0762	-15.5489	
0.4670	-12.1988	8.5195	-37.9453	0.0000	1.2500	-0.0000	54.3814	-12.1603	2.9686	51.5726	4.4001	3.7934	0.0000	66.4570	-0.3083	-7.0709	102.0103	7.4918	10.5924	-0.0000	-19.1855	-0.1297	-3.3586	66.9921	-12.0030	43.4107	28.2820	28.0104	-27.8482	-10.8702	79.4422	6.3319	24.2778	14.5838	63.6230	-21.1706	-15.6139	
0.4830	-12.1349	8.6750	-37.4535	0.0000	1.2500	-0.0000	52.1397	-12.1674	2.8906	49.3405	3.2879	3.8079	0.0000	68.6506	-0.2191	-6.7146	103.9756	7.6786	10.4923	-0.0000	-19.1703	-0.1305	-3.5166	66.9622	-12.0971	43.2513	28.2203	27.8636	-27.6996	-10.8425	79.3953	6.3847	24.4745	14.5912	63.7098	-21.2770	-15.6768	
0.5000	-12.0734	8.8126	-37.0444	0.0000	1.2500	-0.0000	50.0532	-12.1757	2.8056	47.4309	2.2672	3.8478	0.0000	70.7457	-0.1492	-6.5052	105.5933	7.8978	10.3313	-0.0000	-19.1619	-0.1452	-3.6379	66.8734	-12.1789	43.1074	28.1687	27.7170	-27.5798	-10.8208	79.3596	6.4212	24.6559	14.5935	63.7940	-21.3416	-15.7105	
0.5170	-12.0075	8.9413	-36.7061	0.0000	1.2500	-0.0000	48.1164	-12.2043	2.6853	45.8326	1.3479	3.9090	-0.0000	72.7297	-0.0856	-6.4747	106.8442	8.1768	10.0912	-0.0000	-19.1634	-0.1751	-3.7186	66.6748	-12.2267	43.0019	28.1246	27.5495	-27.5048	-10.8056	79.3458	6.4332	24.8303	14.5898	63.8638	-21.3402	-15.7022	
0.5330	-11.9447	9.0526	-36.4505	0.0000	1.2500	-0.0000	46.3362	-12.2399	2.5659	44.5498	0.5183	3.9875	-0.0000	74.6127	-0.0618	-6.5787	107.7480	8.4877	9.7942	0.0000	-19.1717	-0.2188	-3.7625	66.4177	-12.2616	42.9121	28.0904	27.3820	-27.4588	-10.7967	79.3435	6.4291	24.9893	14.5808	63.9310	-21.2974	-15.6649	
0.5500	-11.9070	9.1226	-36.3179	0.0000	1.2500	-0.0000	44.8051	-12.2548	2.4525	43.7012	-0.1135	4.1082	0.0000	76.3299	-0.0955	-6.7648	108.2890	8.8232	9.4097	0.0000	-19.1757	-0.2695	-3.7665	66.1700	-12.3115	42.8067	28.0727	27.2633	-27.4177	-10.7856	79.3282	6.4365	25.1144	14.5532	63.9939	-21.2328	-15.6104	
0.5670	-11.9004	9.1386	-36.3244	0.0000	1.2500	-0.0000	43.5400	-12.2715	2.3302	43.3270	-0.5124	4.3044	0.0000	77.8890	-0.1931	-7.0309	108.4414	9.1688	8.8681	-0.0000	-19.1726	-0.3231	-3.7229	65.9343	-12.4057	42.6595	28.0827	27.2184	-27.3769	-10.7712	79.2938	6.4754	25.1901	14.4905	64.0585	-21.1310	-15.5282	
0.5830	-11.9194	9.1137	-36.4537	0.0000	1.2500	-0.0000	42.5255	-12.2749	2.2233	43.3876	-0.7144	4.5399	0.0000	79.2825	-0.3539	-7.3630	108.2319	9.5386	8.2451	0.0000	-19.1649	-0.3839	-3.6392	65.7076	-12.5154	42.4965	28.1097	27.2227	-27.3410	-10.7545	79.2462	6.5255	25.2317	14.4097	64.1187	-21.0075	-15.4287	
